<?xml version="1.0" standalone="no"?>
<!DOCTYPE svg PUBLIC "-//W3C//DTD SVG 20010904//EN"
 "http://www.w3.org/TR/2001/REC-SVG-20010904/DTD/svg10.dtd">
<svg version="1.0" xmlns="http://www.w3.org/2000/svg"
 width="601.000000pt" height="235.000000pt" viewBox="0 0 601.000000 235.000000"
 preserveAspectRatio="xMidYMid meet">

<g transform="translate(0.000000,235.000000) scale(0.100000,-0.100000)"
fill="#000000" stroke="none">
<path d="M2865 2193 c-32 -87 -71 -193 -87 -236 l-28 -78 31 3 c29 3 34 8 53
61 l20 58 104 -3 105 -3 20 -57 c20 -55 23 -58 55 -58 18 0 32 4 30 8 -1 5
-41 111 -87 235 l-84 227 -37 0 -37 0 -58 -157z m139 -31 c20 -57 36 -106 36
-108 0 -2 -38 -4 -84 -4 l-84 0 41 119 c23 66 45 114 49 108 3 -7 22 -59 42
-115z"/>
<path d="M127 2326 c-50 -18 -85 -51 -108 -101 -17 -36 -19 -70 -19 -360 0
-356 3 -372 68 -427 52 -44 108 -49 452 -46 l315 3 3 93 3 92 -306 0 c-192 0
-314 4 -326 10 -18 10 -19 24 -19 273 0 191 3 266 12 275 9 9 95 12 325 12
l313 0 0 96 0 96 -27 -7 c-40 -9 -83 -54 -83 -85 0 -39 -26 -70 -60 -70 -32 0
-50 23 -50 64 0 14 -13 40 -29 58 l-29 33 -199 2 c-150 2 -207 -1 -236 -11z"/>
<path d="M920 2245 l0 -95 309 0 c268 0 312 -2 325 -16 20 -19 22 -144 4 -162
-9 -9 -78 -12 -250 -12 -291 0 -321 -8 -369 -102 -16 -32 -19 -60 -19 -184 0
-137 2 -150 24 -188 14 -24 42 -51 68 -66 38 -22 57 -25 175 -28 73 -3 153 -1
177 2 55 9 92 44 101 96 8 47 25 63 62 58 20 -2 30 -10 35 -30 5 -16 11 -40
16 -54 4 -15 20 -36 35 -48 28 -21 37 -21 465 -21 240 0 449 3 464 8 38 10 98
65 114 104 10 22 14 78 14 173 0 164 -12 201 -82 247 l-41 28 -251 3 c-159 2
-255 7 -263 14 -8 7 -13 36 -13 84 0 62 3 75 19 84 12 6 134 10 325 10 l306 0
0 96 c0 94 0 95 -22 89 -46 -13 -73 -41 -85 -88 -15 -61 -19 -67 -52 -67 -34
0 -46 13 -55 61 -8 45 -48 87 -91 95 -17 3 -113 4 -211 2 -165 -3 -182 -5
-219 -26 -77 -44 -104 -109 -105 -253 0 -148 30 -226 103 -267 27 -14 69 -18
287 -22 l255 -5 0 -85 0 -85 -200 -5 c-136 -3 -207 -9 -223 -18 -29 -17 -48
-49 -56 -94 -6 -35 -28 -58 -55 -58 -21 0 -51 41 -51 69 0 39 -35 77 -85 93
l-40 13 -5 307 -5 306 -30 43 c-16 23 -48 52 -70 63 -38 20 -58 21 -387 24
l-348 3 0 -96z m638 -487 c18 -18 16 -143 -4 -162 -13 -14 -47 -16 -219 -16
-239 0 -235 -2 -235 91 0 104 -12 99 233 99 152 0 216 -3 225 -12z"/>
<path d="M4550 2300 c0 -27 3 -30 30 -30 27 0 30 3 30 30 0 27 -3 30 -30 30
-27 0 -30 -3 -30 -30z"/>
<path d="M5250 2300 c0 -27 3 -30 30 -30 27 0 30 3 30 30 0 27 -3 30 -30 30
-27 0 -30 -3 -30 -30z"/>
<path d="M5050 2276 c0 -34 -1 -35 -42 -38 -36 -2 -44 -7 -46 -25 -3 -21 1
-23 42 -23 l46 0 0 -139 c0 -168 1 -171 96 -171 57 0 64 2 64 20 0 17 -7 20
-39 20 -64 0 -71 14 -71 151 l0 119 55 0 c52 0 55 1 55 25 0 24 -3 25 -55 25
l-55 0 0 35 c0 31 -3 35 -25 35 -22 0 -25 -4 -25 -34z"/>
<path d="M3244 2231 c-32 -14 -64 -60 -64 -93 0 -41 38 -74 106 -93 102 -28
124 -41 124 -74 0 -33 -15 -49 -57 -57 -43 -9 -97 17 -112 55 -10 22 -20 31
-37 31 -30 0 -31 -23 -5 -66 51 -83 221 -82 259 2 29 63 -6 111 -100 139 -99
29 -118 41 -118 75 0 73 142 64 165 -10 4 -14 15 -20 35 -20 28 0 28 1 19 29
-5 15 -23 41 -40 57 -25 24 -39 29 -92 31 -34 2 -72 -1 -83 -6z"/>
<path d="M3553 2220 c-32 -19 -50 -57 -44 -95 5 -36 41 -62 119 -85 42 -12 85
-29 95 -38 42 -37 1 -87 -70 -87 -37 0 -49 5 -69 28 -13 15 -24 35 -24 43 0 9
-11 14 -31 14 -27 0 -30 -3 -24 -22 25 -88 129 -132 219 -94 43 18 66 51 66
97 0 49 -29 72 -124 100 -77 23 -106 42 -106 70 0 39 83 64 131 39 10 -6 26
-24 34 -40 11 -21 23 -30 40 -30 29 0 31 10 10 51 -35 67 -151 93 -222 49z"/>
<path d="M3902 2220 c-50 -31 -75 -96 -70 -181 4 -73 20 -104 72 -143 39 -29
133 -29 172 0 55 41 69 70 72 152 4 89 -14 132 -68 170 -44 30 -131 31 -178 2z
m149 -48 c37 -33 50 -90 38 -159 -12 -63 -41 -93 -91 -93 -85 0 -113 45 -109
174 1 29 9 46 35 72 43 43 83 45 127 6z"/>
<path d="M4284 2230 c-58 -23 -100 -118 -90 -203 11 -100 65 -152 156 -152 80
0 130 39 155 123 6 19 3 22 -23 22 -24 0 -31 -5 -37 -27 -11 -48 -43 -73 -92
-73 -68 0 -103 47 -103 136 0 146 132 199 191 77 16 -33 26 -43 45 -43 21 0
24 3 18 28 -10 42 -40 85 -72 105 -32 18 -111 22 -148 7z"/>
<path d="M4550 2061 l0 -181 30 0 30 0 -2 178 -3 177 -27 3 -28 3 0 -180z"/>
<path d="M4724 2221 c-37 -22 -64 -58 -64 -83 0 -26 47 -24 55 2 17 54 106 79
145 40 39 -39 17 -68 -72 -99 -111 -38 -138 -61 -138 -118 0 -84 119 -120 202
-61 l28 19 0 -20 c0 -17 6 -21 30 -21 l30 0 0 130 c0 149 -11 190 -59 214 -42
22 -119 20 -157 -3z m140 -272 c-40 -44 -145 -43 -159 1 -10 31 11 56 67 79
29 12 64 27 78 34 l25 13 3 -54 c2 -40 -1 -59 -14 -73z"/>
<path d="M5250 2061 l0 -181 30 0 30 0 -2 178 -3 177 -27 3 -28 3 0 -180z"/>
<path d="M5424 2221 c-50 -31 -77 -98 -72 -181 3 -50 9 -77 24 -97 53 -71 131
-91 208 -54 59 29 86 82 86 172 0 76 -21 123 -70 157 -43 29 -131 31 -176 3z
m146 -48 c40 -36 54 -95 39 -160 -14 -65 -42 -93 -91 -93 -78 0 -108 40 -108
146 0 62 2 68 34 100 43 43 83 45 126 7z"/>
<path d="M5720 2060 l0 -180 25 0 25 0 0 133 c0 131 1 134 26 158 36 34 108
34 135 0 17 -20 19 -40 19 -157 l0 -134 30 0 30 0 0 135 c0 151 -9 184 -60
210 -40 21 -99 19 -138 -5 -40 -25 -42 -25 -42 0 0 15 -7 20 -25 20 l-25 0 0
-180z"/>
<path d="M1911 1303 c-19 -10 -44 -31 -55 -46 -21 -28 -21 -39 -24 -643 l-3
-614 96 0 95 0 0 250 c0 237 1 251 20 270 11 11 27 20 35 20 25 0 55 -38 55
-71 0 -20 10 -40 29 -60 l29 -29 207 0 207 0 34 34 34 34 0 369 c0 417 1 411
-79 468 l-43 30 -301 3 c-273 2 -305 1 -336 -15z m564 -453 l0 -275 -219 -3
c-169 -2 -221 1 -228 10 -12 20 -10 506 2 529 10 18 21 19 228 17 l217 -3 0
-275z"/>
<path d="M2865 1301 c-50 -22 -91 -69 -105 -119 -6 -22 -10 -174 -10 -377 0
-322 1 -342 20 -373 11 -18 32 -37 46 -42 15 -6 279 -10 680 -10 l654 0 0 95
0 95 -69 0 c-54 0 -70 4 -75 16 -3 9 -6 129 -6 268 0 183 3 255 12 264 8 8 59
12 165 12 l153 0 0 95 0 95 -72 0 c-95 0 -132 -21 -148 -82 -17 -63 -24 -73
-56 -76 -33 -4 -54 19 -54 60 0 16 -12 41 -29 60 l-29 33 -136 3 -136 4 0 -96
0 -96 59 0 c37 0 63 -5 70 -14 8 -9 11 -91 9 -277 l-3 -264 -48 -7 c-79 -11
-108 -37 -121 -110 -14 -77 -106 -64 -106 15 0 18 -10 39 -29 58 l-29 29 -247
0 c-151 0 -254 4 -266 10 -16 9 -19 22 -19 83 0 44 5 78 12 85 9 9 95 12 325
12 l313 0 0 198 c0 213 -7 255 -47 303 -54 64 -78 69 -373 69 -236 0 -269 -2
-305 -19z m523 -183 c7 -7 12 -41 12 -83 0 -42 -5 -76 -12 -83 -17 -17 -419
-17 -436 0 -16 16 -16 150 0 166 17 17 419 17 436 0z"/>
</g>
</svg>
