<svg id="Layer_1" data-name="Layer 1" xmlns="http://www.w3.org/2000/svg" viewBox="0 0 1360.54 436.49"><defs><style>.cls-1{fill:#ff0012;}</style></defs><path class="cls-1" d="M306.84,293.68a13.91,13.91,0,0,0-13.6,11l-52.51-2.54a18.61,18.61,0,0,0,.26-3,19.65,19.65,0,0,0-.76-5.35l19.06-11a14.15,14.15,0,1,0-1.64-2.54l-18.51,10.66a19.33,19.33,0,0,0-35.7,14.71L169.16,314a19.2,19.2,0,0,0-5.47-12.49l6.18-8.57a14,14,0,1,0-2.78-1.31l-5.69,7.89a19,19,0,0,0-14.06-3.65l-5.92-33.74a19.34,19.34,0,1,0-13.17-36l-14.91-29.05a19.44,19.44,0,0,0,7.72-7.08l12.36,3.26a14.71,14.71,0,0,0-.16,2,14,14,0,1,0,.92-4.93l-11.68-3.08a19.15,19.15,0,0,0,.91-12l34.35-15.8A19.33,19.33,0,0,0,189.17,137l22-21.48a19.12,19.12,0,0,0,8.94,3V128a13.91,13.91,0,1,0,3,0v-9.47a19.19,19.19,0,0,0,7.84-2.34l24.1,27.53a19.36,19.36,0,1,0,33.59,5.15l7.51-4.23a13.9,13.9,0,1,0-1.69-2.52l-7.05,4a19.33,19.33,0,0,0-30.33-4.65l-23.59-26.94a19.39,19.39,0,0,0,5.52-6.85l20.66,3.44a13.89,13.89,0,1,0-.34-3.13l-19.2-3.19a19.34,19.34,0,1,0-31.42,8.9l-21.41,20.88a19.27,19.27,0,0,0-13-6.56V113.41a13.91,13.91,0,1,0-3,0V128A19.31,19.31,0,0,0,156,156.88l-33.56,15.44a19.4,19.4,0,0,0-5.52-7.43l13.14-23.56a14.18,14.18,0,0,0,3.53.47,13.94,13.94,0,1,0-6.38-1.56l-12.79,22.92a19.34,19.34,0,1,0-3.91,35.07l15.15,29.52a19.31,19.31,0,0,0-7.44,11.63l-11-3.24a13.74,13.74,0,0,0,.44-3.41,13.91,13.91,0,1,0-1.49,6.25l11.66,3.44c0,.29,0,.56,0,.85a19.32,19.32,0,0,0,8.87,16.25l-7.48,9.82a13.91,13.91,0,1,0,2.07,2.27L129.43,261a19.34,19.34,0,0,0,7.77,1.63c.41,0,.82,0,1.22-.06l6,33.95a19.34,19.34,0,1,0,20.82,30.32l28,12.47a14.15,14.15,0,0,0-.37,3.15,13.95,13.95,0,1,0,1.38-6l-27.33-12.17a19.19,19.19,0,0,0,2.22-7.12l35.59-8.71a19.3,19.3,0,0,0,28.92,5.87l13.32,11.49a14,14,0,1,0,1.58-2.63l-12.67-10.93a19.24,19.24,0,0,0,4.19-7.1l52.91,2.55a13.9,13.9,0,1,0,13.9-14Z"/><path d="M382.45,167.16c-13.54,0-22-9.59-22-22.47s8.56-22.46,22.1-22.46c10.93,0,17.31,5.64,20,14.08H395.2c-2.3-5.22-6.07-7.89-12.69-7.89-9.23,0-14.75,7.23-14.75,16.27S373.28,161,382.51,161c7.11,0,10.93-3.16,12.69-7.9h7.29C400.49,161.15,393.32,167.16,382.45,167.16Z"/><path d="M433.34,166.37h-7.16a22.37,22.37,0,0,1-.31-4.19v-.91h-.06c-1.09,2.86-3.95,5.89-10,5.89-7,0-11.05-4.37-11.05-9.35,0-9.11,10.69-9.35,15.18-10.08,4.13-.67,5.83-1.27,5.83-3.89s-2.25-4.31-6.07-4.31c-3.4,0-5.83,1.88-6,5h-6.87c.31-5.16,4.38-10.5,12.76-10.5,10.44,0,13.11,6.25,13.11,13v12.09A31.78,31.78,0,0,0,433.34,166.37ZM426,148.64c-.73,1.88-2.49,3.34-7.65,4.25-4.31.79-6.56,2-6.56,4.8,0,2.49,2.19,4.31,5.83,4.31,4.31,0,8.38-3.1,8.38-10.08Z"/><path d="M448.77,139.47c-2.74,0-5.11,1.64-5.11,3.89,0,3,3.65,3.88,8.93,5.1,5.53,1.21,9.54,3.83,9.54,8.87,0,6.25-6,9.89-12.94,9.89-6.44,0-12.51-2.91-13.24-10.44h7c.6,3.46,2.73,5,6.37,5,3,0,5.77-1.22,5.77-4.13,0-3.1-3.1-3.58-8.14-4.8s-10.08-3.52-10.08-9.23,5.59-9.53,12-9.53c6.8,0,11.9,3.46,12.63,10.26h-6.68C454.35,140.93,451.62,139.47,448.77,139.47Z"/><path d="M497.41,150.58c0,9.78-6,16.7-14.27,16.7-5.41,0-8.93-2.85-10.2-6.62h-.07v17.8h-7.22V135h7.29v5.71c1.15-3.4,4.79-6.56,10.2-6.56C491.46,134.13,497.41,140.87,497.41,150.58Zm-7.11,0c0-6-3.4-10.68-8.92-10.68s-8.75,4.19-9,10v.66c0,6.2,2.85,10.87,9,10.87C487,161.45,490.3,156.66,490.3,150.58Z"/><path d="M530.44,152.59H506.27c.49,5.71,4.13,9,9.05,9,3.59,0,6.56-1.34,7.72-4.5h7c-1.88,6.38-7.29,10.14-14.7,10.14-9.41,0-15.85-6.74-15.85-16.64,0-9.53,6.68-16.45,15.85-16.45,10.69,0,15.06,8.26,15.12,17.12Zm-7-5.1c-.49-4.92-3.34-7.9-8.2-7.9s-8.14,3.1-8.86,7.9Z"/><path d="M541.25,151.5v14.87h-7V135h6.92v6.68h.12a9.44,9.44,0,0,1,9.23-7.29v7C544.53,141.48,541.25,145.3,541.25,151.5Z"/><path d="M451.5,283.59H396.59l-13,35.63H360.41l49.95-131.13h27.73l49.77,131.13H464.54ZM403,265.78h42.05l-20.75-58h-.55Z"/><path d="M528.82,237.86c-8.26,0-15.43,5-15.43,11.75,0,9.19,11,11.76,27,15.43,16.71,3.67,28.83,11.57,28.83,26.81,0,18.92-18.18,29.94-39.11,29.94-19.47,0-37.84-8.82-40-31.59h21.12c1.84,10.47,8.26,15.24,19.28,15.24,9,0,17.45-3.67,17.45-12.48,0-9.37-9.37-10.84-24.61-14.51-15.24-3.49-30.49-10.65-30.49-27.92s16.9-28.83,36.37-28.83c20.57,0,36,10.47,38.2,31H547.18C545.72,242.27,537.45,237.86,528.82,237.86Z"/><path d="M612.75,237.86c-8.26,0-15.42,5-15.42,11.75,0,9.19,11,11.76,27,15.43,16.72,3.67,28.84,11.57,28.84,26.81,0,18.92-18.18,29.94-39.12,29.94-19.47,0-37.83-8.82-40-31.59h21.12c1.84,10.47,8.27,15.24,19.29,15.24,9,0,17.44-3.67,17.44-12.48,0-9.37-9.36-10.84-24.61-14.51C592,275,576.76,267.8,576.76,250.53s16.89-28.83,36.36-28.83c20.57,0,36,10.47,38.2,31h-20.2C629.65,242.27,621.38,237.86,612.75,237.86Z"/><path d="M658.67,271.84c0-29.76,20.75-50.14,48.85-50.14s48.85,20.38,48.85,50.14-20.75,50-48.85,50S658.67,301.59,658.67,271.84Zm76.4,0c0-19.29-11.75-32.69-27.55-32.69-15.61,0-27.55,13.4-27.55,32.69,0,19.1,11.76,32.69,27.55,32.69S735.07,290.94,735.07,271.84Z"/><path d="M812.57,321.79c-28.46,0-50-19.83-50-50,0-30.49,21.49-50.14,50-50.14,23.51,0,39.49,13.22,43.16,32.69H835.35c-3.49-9.55-10.66-15.8-23.14-15.8-16,0-28.65,12.68-28.65,33.25,0,20.2,12.48,33.05,28.65,33.05,11.75,0,20.2-5.51,23.5-16.34H856.1C851.69,310,835.35,321.79,812.57,321.79Z"/><path d="M867.12,209.39V188.46h22.22v20.93Zm.55,14.88h21.12v95H867.67Z"/><path d="M986.68,319.22H965a70.2,70.2,0,0,1-.92-12.67v-2.76h-.18c-3.31,8.63-11.94,17.82-30.12,17.82-21.3,0-33.43-13.23-33.43-28.29,0-27.54,32.33-28.28,45.92-30.48,12.49-2,17.63-3.86,17.63-11.76s-6.8-13-18.37-13c-10.28,0-17.63,5.7-18.18,15.25H906.61c.92-15.61,13.22-31.78,38.57-31.78,31.58,0,39.67,18.92,39.67,39.31v36.54C984.85,304.53,985.21,314.26,986.68,319.22Zm-22.22-53.63c-2.2,5.69-7.53,10.1-23.14,12.86-13,2.38-19.84,6.06-19.84,14.51,0,7.53,6.62,13,17.64,13,13,0,25.34-9.37,25.34-30.49Z"/><path d="M1026.17,240.8v45.73c0,9.55,2.75,16.34,10.84,16.34h5.69v16.35h-10.1c-20.76,0-27.55-13.41-27.55-30.12V240.8H990.36V224.27h14.69V203l20.39-10.29h.73v31.59h18.55V240.8Z"/><path d="M1054.64,209.39V188.46h22.22v20.93Zm.55,14.88h21.12v95h-21.12Z"/><path d="M1087.88,271.84c0-29.76,20.75-50.14,48.85-50.14s48.85,20.38,48.85,50.14-20.75,50-48.85,50S1087.88,301.59,1087.88,271.84Zm76.4,0c0-19.29-11.75-32.69-27.55-32.69-15.61,0-27.55,13.4-27.55,32.69,0,19.1,11.76,32.69,27.55,32.69S1164.28,290.94,1164.28,271.84Z"/><path d="M1280.54,259.9v59.32h-21.12V264.31c0-15.43-5-25.16-18.37-25.16-13,0-22.77,8.63-22.77,32v48.12H1197v-95h21.12v18.18c3.31-11.2,12.49-20.75,28.29-20.75C1271,221.7,1280.54,238,1280.54,259.9Z"/></svg>